<svg width="200" height="68" viewBox="0 0 200 68" fill="none" xmlns="http://www.w3.org/2000/svg">
<g clip-path="url(#clip0_15_36)">
<path d="M34 48.35C38.1421 48.35 41.5 41.9253 41.5 34C41.5 26.0747 38.1421 19.65 34 19.65C29.8579 19.65 26.5 26.0747 26.5 34C26.5 41.9253 29.8579 48.35 34 48.35Z" fill="#D9253E"/>
<path d="M45.25 34C45.25 36.425 44.675 44.4 37.675 50.25C39.625 51.025 41.75 51.5 44 51.5C53.65 51.5 61.5 43.65 61.5 34C61.5 24.35 53.65 16.5 44 16.5C41.75 16.5 39.625 16.975 37.675 17.75C44.675 23.6 45.25 31.575 45.25 34Z" fill="#8B56C7"/>
<path d="M24 51.5C26.25 51.5 28.375 51.025 30.325 50.25C28.8 48.975 27.575 47.575 26.6 46.175C25.775 46.375 24.9 46.5 24 46.5C17.1 46.5 11.5 40.9 11.5 34C11.5 27.1 17.1 21.5 24 21.5C24.9 21.5 25.775 21.625 26.6 21.825C27.575 20.425 28.8 19.025 30.325 17.75C28.375 16.975 26.25 16.5 24 16.5C14.35 16.5 6.5 24.35 6.5 34C6.5 43.65 14.35 51.5 24 51.5Z" fill="#EA540C"/>
</g>
<path d="M72.0742 40.5586C72.0742 40.7734 71.9766 40.8809 71.7812 40.8809C71.6836 40.8809 71.6055 40.8451 71.5469 40.7734C71.4883 40.7083 71.459 40.5814 71.459 40.3926C71.459 40.2038 71.5046 39.8327 71.5957 39.2793C71.6868 38.7324 71.7324 38.2539 71.7324 37.8438C71.7324 37.4271 71.625 36.9746 71.4102 36.4863L66.5664 25.3438C66.4232 24.9922 66.1921 24.709 65.873 24.4941L66 24.3086C66.306 24.5104 66.6576 24.6113 67.0547 24.6113H70.4629C70.86 24.6113 71.1465 24.4746 71.3223 24.2012L71.6055 24.377C71.4948 24.5202 71.4395 24.6602 71.4395 24.7969C71.4395 24.9271 71.5273 25.2266 71.7031 25.6953C71.8854 26.1641 72.123 26.7533 72.416 27.4629C72.709 28.166 72.9824 28.8203 73.2363 29.4258C73.4967 30.0312 73.7702 30.666 74.0566 31.3301C74.3431 31.9941 74.5026 32.3652 74.5352 32.4434C74.5677 32.3652 74.7272 31.9941 75.0137 31.3301C75.3001 30.666 75.5703 30.0312 75.8242 29.4258C76.0846 28.8203 76.3613 28.1628 76.6543 27.4531C77.3053 25.8841 77.6309 25.0117 77.6309 24.8359C77.6309 24.6602 77.5788 24.5072 77.4746 24.377L77.748 24.2012C77.9238 24.4746 78.2103 24.6113 78.6074 24.6113H82.0254C82.429 24.6113 82.7839 24.5104 83.0898 24.3086L83.207 24.4941C82.888 24.709 82.6569 24.9922 82.5137 25.3438L77.6016 36.9648C77.5169 37.1602 77.4746 37.6289 77.4746 38.3711C77.4746 39.1133 77.5495 39.9368 77.6992 40.8418C77.8555 41.7533 77.9336 42.4303 77.9336 42.873C77.9336 43.5046 77.7057 43.8203 77.25 43.8203C76.8008 43.8203 76.5762 43.5078 76.5762 42.8828C76.5762 42.4596 76.6576 41.8314 76.8203 40.998C76.9831 40.1712 77.0645 39.4128 77.0645 38.7227C77.0645 38.0326 76.9798 37.6875 76.8105 37.6875H72.084C71.9798 37.6875 71.9277 37.9284 71.9277 38.4102L72.0742 40.5586ZM89.418 43.2637L89.5254 40.666C89.5254 39.8262 89.4928 39.2956 89.4277 39.0742C89.3691 38.8529 89.3073 38.6576 89.2422 38.4883C89.1771 38.319 89.0924 38.1823 88.9883 38.0781C88.8841 37.974 88.7604 37.8763 88.6172 37.7852C88.3438 37.6029 87.9141 37.5117 87.3281 37.5117C86.7422 37.5117 86.2474 37.7493 85.8438 38.2246C85.4466 38.6999 85.248 39.2695 85.248 39.9336C85.248 40.181 85.2969 40.5488 85.3945 41.0371C85.4922 41.5319 85.541 41.903 85.541 42.1504C85.541 42.6191 85.375 42.8535 85.043 42.8535C84.7109 42.8535 84.5449 42.6257 84.5449 42.1699C84.5449 41.916 84.5938 41.5352 84.6914 41.0273C84.7956 40.5195 84.8477 40.1354 84.8477 39.875L84.916 37.2578V25.7832C84.916 25.3796 84.7891 25.054 84.5352 24.8066L84.7305 24.6016C85.0039 24.862 85.3294 24.9922 85.707 24.9922H89.2422C89.6328 24.9922 89.9583 24.862 90.2188 24.6016L90.4141 24.8066C90.1602 25.0605 90.0332 25.3861 90.0332 25.7832V37.209C90.0332 37.5475 89.9974 38.1302 89.9258 38.957C89.8542 39.7904 89.8314 40.4316 89.8574 40.8809H89.8477C90.0885 41.9616 90.209 42.7852 90.209 43.3516C90.209 43.918 90.1016 44.2012 89.8867 44.2012C89.5742 44.2012 89.418 43.8887 89.418 43.2637ZM93.5391 39.1914L93.5195 37.209V25.7441C93.5195 25.347 93.3958 25.0247 93.1484 24.7773L93.3438 24.582C93.5911 24.8294 93.9134 24.9531 94.3105 24.9531H102.738C104.086 24.9531 104.997 24.9922 105.473 25.0703C105.954 25.1484 106.374 25.2363 106.732 25.334C107.09 25.4251 107.39 25.5358 107.631 25.666C107.872 25.7962 108.119 25.9622 108.373 26.1641C108.627 26.3659 108.829 26.5938 108.979 26.8477C109.324 27.4336 109.496 28.0911 109.496 28.8203C109.496 29.543 109.415 30.1615 109.252 30.6758C109.096 31.1836 108.842 31.6393 108.49 32.043C107.761 32.8893 106.521 33.3125 104.77 33.3125H99.3887C98.985 33.3125 98.6595 33.1888 98.4121 32.9414L98.207 33.127C98.4674 33.3874 98.5977 33.7129 98.5977 34.1035V37.209C98.5977 37.7103 98.5911 38.3255 98.5781 39.0547L98.1387 39.0938C98.054 38.3646 97.9434 38 97.8066 38H94.3105C94.2324 38 94.1673 38.1562 94.1152 38.4688C94.0697 38.7878 94.0469 39.0905 94.0469 39.377C94.0469 39.6699 94.1087 40.1647 94.2324 40.8613C94.3561 41.5579 94.418 42.0462 94.418 42.3262C94.418 42.9251 94.1999 43.2246 93.7637 43.2246C93.3275 43.2246 93.1094 42.9186 93.1094 42.3066C93.1094 42.0137 93.181 41.4961 93.3242 40.7539C93.4674 40.0117 93.5391 39.4909 93.5391 39.1914ZM98.5977 29.0059V29.582C98.5977 29.9661 98.4674 30.2884 98.207 30.5488L98.4121 30.7539C98.666 30.5 98.9915 30.373 99.3887 30.373H102.553C103.21 30.373 103.604 30.3372 103.734 30.2656C103.865 30.1875 103.975 30.1094 104.066 30.0312C104.223 29.888 104.301 29.6829 104.301 29.416C104.301 29.1491 104.271 28.9538 104.213 28.8301C104.161 28.6999 104.083 28.599 103.979 28.5273C103.874 28.4557 103.77 28.3971 103.666 28.3516C103.562 28.306 103.435 28.2734 103.285 28.2539C103.077 28.2279 102.846 28.2148 102.592 28.2148H99.3887C98.985 28.2148 98.6595 28.0911 98.4121 27.8438L98.207 28.0293C98.4674 28.2897 98.5977 28.6152 98.5977 29.0059ZM96.2539 38.6641L96.5078 40.9785C96.5078 41.3757 96.3613 41.5742 96.0684 41.5742C95.7819 41.5742 95.6387 41.3724 95.6387 40.9688C95.6387 40.7344 95.6973 40.3242 95.8145 39.7383C95.9382 39.1589 96 38.778 96 38.5957C96 38.4199 95.9967 38.1921 95.9902 37.9121C95.9902 37.6322 95.9902 37.3978 95.9902 37.209L96.4297 37.7266C96.3841 37.7266 96.3418 37.8307 96.3027 38.0391C96.2702 38.2539 96.2539 38.4622 96.2539 38.6641ZM116.605 43.2637L116.713 40.666C116.713 39.8262 116.68 39.2956 116.615 39.0742C116.557 38.8529 116.495 38.6576 116.43 38.4883C116.365 38.319 116.28 38.1823 116.176 38.0781C116.072 37.974 115.948 37.8763 115.805 37.7852C115.531 37.6029 115.102 37.5117 114.516 37.5117C113.93 37.5117 113.435 37.7493 113.031 38.2246C112.634 38.6999 112.436 39.2695 112.436 39.9336C112.436 40.181 112.484 40.5488 112.582 41.0371C112.68 41.5319 112.729 41.903 112.729 42.1504C112.729 42.6191 112.562 42.8535 112.23 42.8535C111.898 42.8535 111.732 42.6257 111.732 42.1699C111.732 41.916 111.781 41.5352 111.879 41.0273C111.983 40.5195 112.035 40.1354 112.035 39.875L112.104 37.2578V25.7832C112.104 25.3796 111.977 25.054 111.723 24.8066L111.918 24.6016C112.191 24.862 112.517 24.9922 112.895 24.9922H116.43C116.82 24.9922 117.146 24.862 117.406 24.6016L117.602 24.8066C117.348 25.0605 117.221 25.3861 117.221 25.7832V37.209C117.221 37.5475 117.185 38.1302 117.113 38.957C117.042 39.7904 117.019 40.4316 117.045 40.8809H117.035C117.276 41.9616 117.396 42.7852 117.396 43.3516C117.396 43.918 117.289 44.2012 117.074 44.2012C116.762 44.2012 116.605 43.8887 116.605 43.2637ZM124.232 41.0273L124.467 38.3809C124.467 38.1725 124.35 38 124.115 37.8633C123.731 37.6484 123.262 37.541 122.709 37.541C121.967 37.541 121.456 37.6875 121.176 37.9805C121.052 38.1107 120.99 38.2995 120.99 38.5469C120.99 38.8008 121.065 39.2402 121.215 39.8652C121.365 40.4902 121.439 40.9297 121.439 41.1836C121.439 41.444 121.391 41.6491 121.293 41.7988C121.202 41.9551 121.065 42.0332 120.883 42.0332C120.701 42.0332 120.561 41.9551 120.463 41.7988C120.365 41.6491 120.316 41.444 120.316 41.1836C120.316 40.9232 120.395 40.474 120.551 39.8359C120.714 39.1979 120.795 38.7161 120.795 38.3906L120.785 26.418C120.785 25.6497 120.551 25.0085 120.082 24.4941L120.287 24.2891C120.814 24.7578 121.456 24.9922 122.211 24.9922H125.131C125.548 24.9922 125.899 24.9434 126.186 24.8457C126.479 24.7415 126.713 24.5397 126.889 24.2402L127.211 24.3965C127.042 24.8001 126.957 25.181 126.957 25.5391C126.957 25.832 127.471 26.5677 128.5 27.7461C129.841 29.2826 130.704 30.3145 131.088 30.8418C131.472 31.3691 131.723 31.7956 131.84 32.1211H132.426C132.107 31.6523 131.947 30.9915 131.947 30.1387C131.947 29.7415 131.996 29.1491 132.094 28.3613C132.191 27.5671 132.24 26.9714 132.24 26.5742C132.24 25.5065 131.902 24.8132 131.225 24.4941L131.43 24.2891C131.957 24.7578 132.598 24.9922 133.354 24.9922H135.355C136.111 24.9922 136.752 24.7578 137.279 24.2891L137.475 24.4941C137.012 25.015 136.781 25.6562 136.781 26.418L136.762 38.3418C136.762 38.6217 136.827 39.0384 136.957 39.5918C137.087 40.1517 137.152 40.5716 137.152 40.8516C137.152 41.2682 136.993 41.4766 136.674 41.4766C136.355 41.4766 136.195 41.2682 136.195 40.8516C136.195 40.5781 136.257 40.1745 136.381 39.6406C136.505 39.1133 136.566 38.7487 136.566 38.5469C136.566 38.3516 136.501 38.2116 136.371 38.127C136.241 38.0423 136.114 38 135.99 38H132.133C131.586 38 131.312 38.498 131.312 39.4941C131.312 39.9043 131.387 40.4967 131.537 41.2715C131.693 42.0527 131.771 42.6419 131.771 43.0391C131.771 43.6055 131.56 43.8887 131.137 43.8887C130.714 43.8887 130.502 43.6022 130.502 43.0293C130.502 42.6647 130.583 42.1341 130.746 41.4375C130.915 40.7409 131.003 40.2168 131.01 39.8652L131.029 38.5664C131.049 37.9609 130.987 37.5671 130.844 37.3848L126.166 31.457C126.042 31.2943 125.906 30.9557 125.756 30.4414L125.16 30.4609C125.499 30.8125 125.668 31.2031 125.668 31.6328V37.209L125.854 42.1504C125.854 42.2546 125.821 42.3424 125.756 42.4141C125.697 42.4922 125.613 42.5312 125.502 42.5312C125.398 42.5312 125.31 42.4857 125.238 42.3945C125.167 42.3099 125.131 42.2122 125.131 42.1016L125.248 38.3516C125.248 38.2734 125.219 38.2018 125.16 38.1367C125.102 38.0716 125.033 38.0391 124.955 38.0391C124.786 38.0391 124.701 38.1693 124.701 38.4297C124.701 38.6901 124.743 39.1165 124.828 39.709C124.919 40.3014 124.965 40.7083 124.965 40.9297C124.965 41.4245 124.841 41.6719 124.594 41.6719C124.353 41.6719 124.232 41.457 124.232 41.0273ZM144.115 27.3652C144.115 28.5111 143.633 29.7578 142.67 31.1055L141.215 30.9883C141.618 30.1615 141.898 29.2174 142.055 28.1562H140.482C140.085 28.1562 139.854 28.1237 139.789 28.0586C139.724 27.9935 139.691 27.7624 139.691 27.3652V26.1738C139.691 26.1413 139.691 26.0404 139.691 25.8711C139.691 25.6953 139.691 25.5586 139.691 25.4609C139.698 25.3568 139.721 25.2591 139.76 25.168C139.799 25.0703 139.851 25.015 139.916 25.002C139.981 24.9889 140.085 24.9824 140.229 24.9824H142.924C142.969 24.9824 143.129 24.9824 143.402 24.9824C143.682 24.9824 143.871 25.0085 143.969 25.0605C144.073 25.1061 144.125 25.2559 144.125 25.5098L144.115 27.3652ZM152.836 40.8516L152.934 39.8652V38.0391C151.182 37.9479 149.874 37.7103 149.008 37.3262C148.142 36.9355 147.504 36.4473 147.094 35.8613C146.846 35.5163 146.654 35.1322 146.518 34.709C146.387 34.2793 146.169 33.957 145.863 33.7422L146.01 33.5371C146.303 33.7324 146.618 33.8301 146.957 33.8301C147.302 33.8301 147.742 33.8171 148.275 33.791C148.809 33.765 149.411 33.7357 150.082 33.7031C150.753 33.6641 151.231 33.638 151.518 33.625C151.804 33.612 152.016 33.5729 152.152 33.5078C152.289 33.4362 152.387 33.3092 152.445 33.127L152.885 33.2734C152.865 33.3255 152.855 33.3939 152.855 33.4785C152.855 33.6934 153.035 33.9375 153.393 34.2109C153.751 34.4844 154.398 34.6211 155.336 34.6211C155.967 34.6211 156.417 34.5137 156.684 34.2988C156.801 34.2012 156.859 34.084 156.859 33.9473C156.859 33.6283 156.684 33.4167 156.332 33.3125C155.98 33.2083 155.554 33.1204 155.053 33.0488C154.558 32.9707 154.06 32.9089 153.559 32.8633C153.064 32.8177 152.527 32.7526 151.947 32.668C151.368 32.5833 150.821 32.4922 150.307 32.3945C149.792 32.2904 149.291 32.1406 148.803 31.9453C148.321 31.75 147.908 31.5221 147.562 31.2617C147.217 30.9948 146.938 30.6562 146.723 30.2461C146.514 29.8294 146.41 29.3574 146.41 28.8301C146.41 28.3027 146.492 27.821 146.654 27.3848C146.824 26.9486 147.051 26.5742 147.338 26.2617C147.624 25.9492 147.969 25.6725 148.373 25.4316C148.783 25.1908 149.21 24.9954 149.652 24.8457C150.102 24.696 150.59 24.5755 151.117 24.4844C152.035 24.3151 152.901 24.2305 153.715 24.2305C154.529 24.2305 155.147 24.2435 155.57 24.2695C156 24.2891 156.501 24.3314 157.074 24.3965C157.654 24.4551 158.174 24.556 158.637 24.6992C159.105 24.8359 159.568 25.0117 160.023 25.2266C160.974 25.6693 161.641 26.3561 162.025 27.2871C162.182 27.6191 162.396 27.9284 162.67 28.2148L162.543 28.4395C162.27 28.2507 161.954 28.1562 161.596 28.1562H161.469C160.948 28.1758 160.202 28.2148 159.232 28.2734C158.269 28.3255 157.647 28.3581 157.367 28.3711C157.094 28.3841 156.895 28.4232 156.771 28.4883C156.654 28.5534 156.57 28.6771 156.518 28.8594L156.088 28.7422C156.107 28.6836 156.117 28.6217 156.117 28.5566C156.117 28.2832 155.896 28.0488 155.453 27.8535C155.01 27.6517 154.509 27.5508 153.949 27.5508C152.855 27.5508 152.309 27.7656 152.309 28.1953C152.309 28.5794 153.129 28.8594 154.77 29.0352C155.154 29.0807 155.59 29.1263 156.078 29.1719C157.777 29.3477 159.079 29.5788 159.984 29.8652C161.885 30.4642 162.836 31.6068 162.836 33.293C162.836 33.9831 162.693 34.6048 162.406 35.1582C162.12 35.7051 161.745 36.151 161.283 36.4961C160.827 36.8411 160.287 37.1276 159.662 37.3555C158.536 37.7656 157.25 37.9707 155.805 37.9707C155.414 37.9707 155.183 37.9674 155.111 37.9609C154.76 37.9609 154.584 38.2311 154.584 38.7715V39.0059C154.584 39.1816 154.626 39.4388 154.711 39.7773C154.802 40.1224 154.848 40.3796 154.848 40.5488C154.848 40.8939 154.727 41.0664 154.486 41.0664C154.363 41.0664 154.265 41.0143 154.193 40.9102C154.128 40.806 154.096 40.6758 154.096 40.5195C154.096 40.3633 154.135 40.0964 154.213 39.7188C154.298 39.3477 154.34 39.0775 154.34 38.9082C154.34 38.7389 154.337 38.6185 154.33 38.5469C154.33 38.4818 154.32 38.3971 154.301 38.293C154.288 38.1953 154.262 38.1237 154.223 38.0781C154.132 37.9609 153.975 37.9023 153.754 37.9023C153.35 37.9023 153.148 38.2539 153.148 38.957L153.207 40.5586C153.207 40.9883 153.145 41.2031 153.021 41.2031C152.898 41.2031 152.836 41.0859 152.836 40.8516ZM185.727 26.9648L185.814 31.9551C185.814 33.6934 185.6 34.9661 185.17 35.7734C184.766 36.5417 184.19 37.1178 183.441 37.502C182.589 37.9447 181.456 38.2311 180.043 38.3613V40.1875L180.141 41.1934C180.141 41.4147 180.079 41.5254 179.955 41.5254C179.831 41.5254 179.77 41.3105 179.77 40.8809L179.828 39.2891C179.828 38.5859 179.61 38.2344 179.174 38.2344C178.835 38.2344 178.666 38.5111 178.666 39.0645C178.666 39.0645 178.682 39.3477 178.715 39.9141C178.715 40.1094 178.754 40.3926 178.832 40.7637C178.917 41.1413 178.959 41.4082 178.959 41.5645C178.959 41.7207 178.926 41.8509 178.861 41.9551C178.796 42.0592 178.702 42.1113 178.578 42.1113C178.454 42.1113 178.36 42.056 178.295 41.9453C178.236 41.8411 178.207 41.7142 178.207 41.5645C178.207 41.4147 178.249 41.1673 178.334 40.8223C178.425 40.4837 178.471 40.2656 178.471 40.168C178.471 40.0703 178.471 39.9694 178.471 39.8652C178.471 39.7676 178.467 39.6667 178.461 39.5625C178.454 39.4583 178.438 39.3281 178.412 39.1719C178.36 38.8464 178.204 38.6836 177.943 38.6836C177.462 38.6836 177.221 39.1589 177.221 40.1094V40.5586C177.221 40.7995 177.279 41.151 177.396 41.6133C177.514 42.0755 177.572 42.4076 177.572 42.6094C177.572 43.1107 177.41 43.3613 177.084 43.3613C176.921 43.3613 176.791 43.293 176.693 43.1562C176.602 43.0195 176.557 42.8438 176.557 42.6289C176.557 42.4141 176.609 42.0495 176.713 41.5352C176.824 41.0208 176.879 40.6302 176.879 40.3633V38.4199C175.03 38.3353 173.643 38.0651 172.719 37.6094C171.104 36.8281 170.274 35.3438 170.229 33.1562C170.215 32.5508 170.209 31.6491 170.209 30.4512L170.229 25.9395C170.229 25.5553 170.102 25.2331 169.848 24.9727L170.053 24.7773C170.294 25.0247 170.616 25.1484 171.02 25.1484H174.477C174.874 25.1484 175.196 25.0247 175.443 24.7773L175.648 24.9727C175.401 25.2266 175.277 25.5488 175.277 25.9395L175.297 30.959C175.297 31.929 175.323 32.5443 175.375 32.8047C175.427 33.0651 175.482 33.306 175.541 33.5273C175.606 33.7422 175.681 33.9147 175.766 34.0449C175.857 34.1751 175.971 34.3151 176.107 34.4648C176.244 34.6081 176.4 34.7188 176.576 34.7969C176.986 34.9792 177.387 35.0703 177.777 35.0703C178.174 35.0703 178.48 35.054 178.695 35.0215C178.917 34.9824 179.109 34.9238 179.271 34.8457C179.441 34.7611 179.59 34.6732 179.721 34.582C179.857 34.4844 179.971 34.3639 180.062 34.2207C180.16 34.071 180.245 33.931 180.316 33.8008C180.388 33.6641 180.443 33.4948 180.482 33.293C180.528 33.0911 180.564 32.9154 180.59 32.7656C180.616 32.6094 180.635 32.4141 180.648 32.1797C180.668 31.8216 180.678 31.4147 180.678 30.959L180.697 25.9395C180.697 25.5423 180.577 25.2201 180.336 24.9727L180.521 24.7773C180.769 25.0247 181.094 25.1484 181.498 25.1484H184.955C185.365 25.1484 185.691 25.0247 185.932 24.7773L186.127 24.9727C185.86 25.2461 185.727 25.9102 185.727 26.9648ZM180.277 43.4199C180.277 43.7259 180.17 43.8789 179.955 43.8789C179.74 43.8789 179.633 43.7194 179.633 43.4004C179.633 43.0879 179.678 42.821 179.77 42.5996C179.867 42.3848 179.926 42.2773 179.945 42.2773C179.965 42.2773 180.001 42.3359 180.053 42.4531C180.202 42.7917 180.277 43.1139 180.277 43.4199ZM193.48 43.2637L193.588 40.666C193.588 39.8262 193.555 39.2956 193.49 39.0742C193.432 38.8529 193.37 38.6576 193.305 38.4883C193.24 38.319 193.155 38.1823 193.051 38.0781C192.947 37.974 192.823 37.8763 192.68 37.7852C192.406 37.6029 191.977 37.5117 191.391 37.5117C190.805 37.5117 190.31 37.7493 189.906 38.2246C189.509 38.6999 189.311 39.2695 189.311 39.9336C189.311 40.181 189.359 40.5488 189.457 41.0371C189.555 41.5319 189.604 41.903 189.604 42.1504C189.604 42.6191 189.438 42.8535 189.105 42.8535C188.773 42.8535 188.607 42.6257 188.607 42.1699C188.607 41.916 188.656 41.5352 188.754 41.0273C188.858 40.5195 188.91 40.1354 188.91 39.875L188.979 37.2578V25.7832C188.979 25.3796 188.852 25.054 188.598 24.8066L188.793 24.6016C189.066 24.862 189.392 24.9922 189.77 24.9922H193.305C193.695 24.9922 194.021 24.862 194.281 24.6016L194.477 24.8066C194.223 25.0605 194.096 25.3861 194.096 25.7832V37.209C194.096 37.5475 194.06 38.1302 193.988 38.957C193.917 39.7904 193.894 40.4316 193.92 40.8809H193.91C194.151 41.9616 194.271 42.7852 194.271 43.3516C194.271 43.918 194.164 44.2012 193.949 44.2012C193.637 44.2012 193.48 43.8887 193.48 43.2637Z" fill="black"/>
<defs>
<clipPath id="clip0_15_36">
<rect width="60" height="60" fill="white" transform="translate(4 4)"/>
</clipPath>
</defs>
</svg>
